<svg width="28" height="28" viewBox="0 0 28 28" fill="none" xmlns="http://www.w3.org/2000/svg">
<path d="M19.5685 4.93153C21.0453 6.40838 21.875 8.41142 21.875 10.5V16.125C21.875 16.4398 22.0232 16.7361 22.275 16.925L24.975 18.95C25.2268 19.1389 25.375 19.4352 25.375 19.75V20.875C25.375 21.4273 24.9273 21.875 24.375 21.875H3.625C3.07272 21.875 2.625 21.4273 2.625 20.875V19.75C2.625 19.4352 2.77319 19.1389 3.025 18.95L5.725 16.925C5.97681 16.7361 6.125 16.4398 6.125 16.125V10.5C6.125 8.41142 6.95469 6.40838 8.43153 4.93153C9.90838 3.45468 11.9114 2.625 14 2.625C16.0886 2.625 18.0916 3.45469 19.5685 4.93153Z" stroke="white" stroke-linejoin="round"/>
<path d="M16.625 21.875C16.625 22.2197 16.5571 22.5611 16.4252 22.8795C16.2933 23.198 16.0999 23.4874 15.8562 23.7312C15.6124 23.9749 15.323 24.1683 15.0045 24.3002C14.6861 24.4321 14.3447 24.5 14 24.5C13.6553 24.5 13.3139 24.4321 12.9955 24.3002C12.677 24.1683 12.3876 23.9749 12.1438 23.7312C11.9001 23.4874 11.7067 23.198 11.5748 22.8795C11.4429 22.5611 11.375 22.2197 11.375 21.875L14 21.875H16.625Z" stroke="white"/>
</svg>
