<svg width="20" height="20" viewBox="0 0 20 20" fill="none" xmlns="http://www.w3.org/2000/svg">
<path d="M13.9775 3.52252C15.0324 4.57742 15.625 6.00816 15.625 7.5V11.375C15.625 11.6898 15.7732 11.9861 16.025 12.175L17.725 13.45C17.9768 13.6389 18.125 13.9352 18.125 14.25V14.625C18.125 15.1773 17.6773 15.625 17.125 15.625H2.875C2.32272 15.625 1.875 15.1773 1.875 14.625V14.25C1.875 13.9352 2.02319 13.6389 2.275 13.45L3.975 12.175C4.22681 11.9861 4.375 11.6898 4.375 11.375V7.5C4.375 6.00816 4.96763 4.57742 6.02252 3.52252C7.07742 2.46763 8.50816 1.875 10 1.875C11.4918 1.875 12.9226 2.46763 13.9775 3.52252Z" stroke="#565656" stroke-linejoin="round"/>
<path d="M11.875 15.625C11.875 15.8712 11.8265 16.115 11.7323 16.3425C11.638 16.57 11.4999 16.7767 11.3258 16.9508C11.1517 17.1249 10.945 17.263 10.7175 17.3573C10.49 17.4515 10.2462 17.5 10 17.5C9.75377 17.5 9.50995 17.4515 9.28247 17.3573C9.05498 17.263 8.84828 17.1249 8.67417 16.9508C8.50006 16.7767 8.36195 16.57 8.26773 16.3425C8.1735 16.115 8.125 15.8712 8.125 15.625L10 15.625H11.875Z" stroke="#565656"/>
</svg>
