<svg width="20" height="20" viewBox="0 0 20 20" fill="none" xmlns="http://www.w3.org/2000/svg">
<path d="M13.125 6.875V4.375C13.125 4.0467 13.0442 3.72161 12.8871 3.41829C12.7301 3.11498 12.4999 2.83938 12.2097 2.60723C11.9195 2.37509 11.575 2.19094 11.1959 2.0653C10.8167 1.93966 10.4104 1.875 10 1.875C9.58962 1.875 9.18326 1.93966 8.80411 2.0653C8.42497 2.19094 8.08047 2.37509 7.79029 2.60723C7.50011 2.83938 7.26992 3.11498 7.11288 3.41829C6.95583 3.72161 6.875 4.0467 6.875 4.375V6.875M13.125 6.875H15.625C16.3154 6.875 16.875 7.43464 16.875 8.125V14.375C16.875 15.0654 16.3154 15.625 15.625 15.625H4.375C3.68464 15.625 3.125 15.0654 3.125 14.375V8.125C3.125 7.43464 3.68464 6.875 4.375 6.875H6.875M13.125 6.875H6.875M10 11.875C10.3452 11.875 10.625 11.5952 10.625 11.25C10.625 10.9048 10.3452 10.625 10 10.625C9.65482 10.625 9.375 10.9048 9.375 11.25C9.375 11.5952 9.65482 11.875 10 11.875ZM10 11.875V13.125" stroke="#565656" stroke-linecap="round"/>
</svg>
