<svg width="20" height="20" viewBox="0 0 20 20" fill="none" xmlns="http://www.w3.org/2000/svg">
<circle cx="10" cy="5.625" r="3.75" stroke="#565656"/>
<path d="M3.125 15.2083H2.625H3.125ZM5.13864 11.0835L5.46213 11.4648L5.13864 11.0835ZM17.375 15.2083C17.375 13.4996 16.5744 11.8813 15.1848 10.7023L14.5379 11.4648C15.727 12.4737 16.375 13.8228 16.375 15.2083H17.375ZM16.375 15.2083V16.125H17.375V15.2083H16.375ZM14.875 17.625H5.125V18.625H14.875V17.625ZM3.625 16.125V15.2083H2.625V16.125H3.625ZM4.81515 10.7023C3.42564 11.8813 2.625 13.4996 2.625 15.2083H3.625C3.625 13.8228 4.27301 12.4737 5.46213 11.4648L4.81515 10.7023ZM10 8.875C8.06816 8.875 6.20217 9.52543 4.81515 10.7023L5.46213 11.4648C6.65374 10.4537 8.28512 9.875 10 9.875V8.875ZM15.1848 10.7023C13.7978 9.52543 11.9318 8.875 10 8.875V9.875C11.7149 9.875 13.3463 10.4537 14.5379 11.4648L15.1848 10.7023ZM5.125 17.625C4.29657 17.625 3.625 16.9534 3.625 16.125H2.625C2.625 17.5057 3.74429 18.625 5.125 18.625V17.625ZM16.375 16.125C16.375 16.9534 15.7034 17.625 14.875 17.625V18.625C16.2557 18.625 17.375 17.5057 17.375 16.125H16.375Z" fill="#565656"/>
</svg>
