<svg width="132" height="88" viewBox="0 0 132 88" fill="none" xmlns="http://www.w3.org/2000/svg">
<path d="M0.0546875 0.953125H24.7812L38.375 38.2578L50.9531 0.953125L61.1484 0.914062L40.7969 59L22.3984 58.9609L0.0546875 0.953125ZM69.0781 0.953125H102.555C106.878 0.953125 110.654 1.40885 113.883 2.32031C117.138 3.23177 119.846 4.50781 122.008 6.14844C124.195 7.78906 125.836 9.75521 126.93 12.0469C128.023 14.3385 128.57 16.8646 128.57 19.625C128.57 23.0365 127.763 26.0703 126.148 28.7266C124.534 31.3568 122.138 33.4531 118.961 35.0156L131.148 59.0391H105.641L96.4219 37.9453H91.6562V59H69.0781V0.953125ZM93.0234 30.875C94.8724 30.875 96.526 30.6146 97.9844 30.0938C99.4427 29.5729 100.68 28.8438 101.695 27.9062C102.711 26.9427 103.492 25.8099 104.039 24.5078C104.586 23.1797 104.859 21.7344 104.859 20.1719C104.859 18.6094 104.586 17.1771 104.039 15.875C103.492 14.5469 102.711 13.4141 101.695 12.4766C100.68 11.513 99.4427 10.7708 97.9844 10.25C96.526 9.72917 94.8724 9.46875 93.0234 9.46875H91.6953L91.6562 30.875H93.0234ZM32.8175 73H31.0561C30.9519 72.4934 30.7697 72.0483 30.5092 71.6648C30.2536 71.2812 29.9411 70.9593 29.5717 70.6989C29.2071 70.4337 28.8023 70.2348 28.3572 70.1023C27.9122 69.9697 27.4482 69.9034 26.9652 69.9034C26.0845 69.9034 25.2867 70.1259 24.5717 70.571C23.8615 71.0161 23.2957 71.6719 22.8743 72.5384C22.4576 73.4048 22.2493 74.4678 22.2493 75.7273C22.2493 76.9867 22.4576 78.0497 22.8743 78.9162C23.2957 79.7827 23.8615 80.4384 24.5717 80.8835C25.2867 81.3286 26.0845 81.5511 26.9652 81.5511C27.4482 81.5511 27.9122 81.4848 28.3572 81.3523C28.8023 81.2197 29.2071 81.0232 29.5717 80.7628C29.9411 80.4976 30.2536 80.1733 30.5092 79.7898C30.7697 79.4015 30.9519 78.9564 31.0561 78.4545H32.8175C32.6849 79.1979 32.4434 79.8632 32.093 80.4503C31.7427 81.0374 31.3071 81.5369 30.7862 81.9489C30.2654 82.3561 29.6806 82.6662 29.032 82.8793C28.388 83.0923 27.6991 83.1989 26.9652 83.1989C25.7247 83.1989 24.6214 82.8958 23.6555 82.2898C22.6896 81.6837 21.9297 80.822 21.3757 79.7045C20.8217 78.5871 20.5447 77.2614 20.5447 75.7273C20.5447 74.1932 20.8217 72.8674 21.3757 71.75C21.9297 70.6326 22.6896 69.7708 23.6555 69.1648C24.6214 68.5587 25.7247 68.2557 26.9652 68.2557C27.6991 68.2557 28.388 68.3622 29.032 68.5753C29.6806 68.7884 30.2654 69.1009 30.7862 69.5128C31.3071 69.92 31.7427 70.4171 32.093 71.0043C32.4434 71.5866 32.6849 72.2519 32.8175 73ZM37.1126 76.4375V83H35.4364V68.4545H37.1126V73.7955H37.2546C37.5103 73.232 37.8938 72.7846 38.4052 72.4531C38.9213 72.117 39.6078 71.9489 40.4648 71.9489C41.2082 71.9489 41.8593 72.098 42.418 72.3963C42.9767 72.6899 43.4099 73.142 43.7177 73.7528C44.0302 74.3589 44.1864 75.1307 44.1864 76.0682V83H42.5103V76.1818C42.5103 75.3153 42.2854 74.6454 41.8356 74.1719C41.3905 73.6937 40.7726 73.4545 39.9819 73.4545C39.4326 73.4545 38.9402 73.5705 38.5046 73.8026C38.0737 74.0346 37.7328 74.3731 37.4819 74.8182C37.2357 75.2633 37.1126 75.803 37.1126 76.4375ZM50.4631 83.2557C49.7718 83.2557 49.1444 83.1255 48.581 82.8651C48.0175 82.5999 47.5701 82.2188 47.2386 81.7216C46.9072 81.2197 46.7415 80.6136 46.7415 79.9034C46.7415 79.2784 46.8646 78.7718 47.1108 78.3835C47.357 77.9905 47.6861 77.6828 48.098 77.4602C48.5099 77.2377 48.9645 77.072 49.4616 76.9631C49.9635 76.8494 50.4678 76.7595 50.9744 76.6932C51.6373 76.608 52.1747 76.544 52.5866 76.5014C53.0033 76.4541 53.3063 76.3759 53.4957 76.267C53.6899 76.1581 53.7869 75.9687 53.7869 75.6989V75.642C53.7869 74.9413 53.5952 74.3968 53.2116 74.0085C52.8329 73.6203 52.2576 73.4261 51.4858 73.4261C50.6856 73.4261 50.0582 73.6013 49.6037 73.9517C49.1491 74.3021 48.8295 74.6761 48.6449 75.0739L47.054 74.5057C47.3381 73.8428 47.7169 73.3267 48.1903 72.9574C48.6686 72.5833 49.1894 72.3229 49.7528 72.1761C50.321 72.0246 50.8797 71.9489 51.429 71.9489C51.7794 71.9489 52.1818 71.9915 52.6364 72.0767C53.0956 72.1572 53.5384 72.3253 53.9645 72.581C54.3954 72.8366 54.7528 73.2225 55.0369 73.7386C55.321 74.2547 55.4631 74.946 55.4631 75.8125V83H53.7869V81.5227H53.7017C53.5881 81.7595 53.3987 82.0128 53.1335 82.2827C52.8684 82.5526 52.5156 82.7822 52.0753 82.9716C51.6349 83.161 51.0975 83.2557 50.4631 83.2557ZM50.7188 81.75C51.3816 81.75 51.9403 81.6198 52.3949 81.3594C52.8542 81.099 53.1998 80.7628 53.4318 80.3509C53.6686 79.9389 53.7869 79.5057 53.7869 79.0511V77.517C53.7159 77.6023 53.5597 77.6804 53.3182 77.7514C53.0814 77.8177 52.8068 77.8769 52.4943 77.929C52.1866 77.9763 51.8859 78.0189 51.5923 78.0568C51.3035 78.09 51.0691 78.1184 50.8892 78.142C50.4536 78.1989 50.0464 78.2912 49.6676 78.419C49.2936 78.5421 48.9905 78.7292 48.7585 78.9801C48.5313 79.2263 48.4176 79.5625 48.4176 79.9886C48.4176 80.571 48.633 81.0114 49.0639 81.3097C49.4995 81.6032 50.0511 81.75 50.7188 81.75ZM60.1985 68.4545V83H58.5224V68.4545H60.1985ZM64.9446 68.4545V83H63.2685V68.4545H64.9446ZM72.5884 83.2273C71.5373 83.2273 70.6306 82.9953 69.8683 82.5312C69.1107 82.0625 68.5259 81.4091 68.114 80.571C67.7068 79.7282 67.5032 78.7481 67.5032 77.6307C67.5032 76.5133 67.7068 75.5284 68.114 74.6761C68.5259 73.8191 69.0988 73.1515 69.8327 72.6733C70.5714 72.1903 71.4331 71.9489 72.418 71.9489C72.9862 71.9489 73.5472 72.0436 74.1012 72.233C74.6552 72.4223 75.1594 72.7301 75.614 73.1562C76.0685 73.5777 76.4308 74.1364 76.7006 74.8324C76.9705 75.5284 77.1055 76.3854 77.1055 77.4034V78.1136H68.6964V76.6648H75.4009C75.4009 76.0492 75.2778 75.5 75.0316 75.017C74.7901 74.5341 74.4445 74.1529 73.9947 73.8736C73.5496 73.5942 73.024 73.4545 72.418 73.4545C71.7504 73.4545 71.1727 73.6203 70.685 73.9517C70.2021 74.2784 69.8304 74.7045 69.57 75.2301C69.3095 75.7557 69.1793 76.3191 69.1793 76.9205V77.8864C69.1793 78.7102 69.3214 79.4086 69.6055 79.9815C69.8943 80.5497 70.2944 80.983 70.8058 81.2812C71.3171 81.5748 71.9113 81.7216 72.5884 81.7216C73.0288 81.7216 73.4265 81.66 73.7816 81.5369C74.1415 81.4091 74.4516 81.2197 74.712 80.9688C74.9724 80.7131 75.1737 80.3958 75.3157 80.017L76.935 80.4716C76.7646 81.0208 76.4781 81.5038 76.0756 81.9205C75.6732 82.3324 75.176 82.6544 74.5842 82.8864C73.9923 83.1136 73.3271 83.2273 72.5884 83.2273ZM81.3313 76.4375V83H79.6552V72.0909H81.2745V73.7955H81.4165C81.6722 73.2415 82.0605 72.7964 82.5813 72.4602C83.1022 72.1193 83.7745 71.9489 84.5984 71.9489C85.337 71.9489 85.9833 72.1004 86.5373 72.4034C87.0913 72.7017 87.5221 73.1562 87.8299 73.767C88.1377 74.3731 88.2915 75.1402 88.2915 76.0682V83H86.6154V76.1818C86.6154 75.3248 86.3929 74.6572 85.9478 74.179C85.5027 73.696 84.8919 73.4545 84.1154 73.4545C83.5804 73.4545 83.1022 73.5705 82.6808 73.8026C82.2641 74.0346 81.935 74.3731 81.6935 74.8182C81.4521 75.2633 81.3313 75.803 81.3313 76.4375ZM95.7578 87.3182C94.9482 87.3182 94.2521 87.214 93.6697 87.0057C93.0874 86.8021 92.602 86.5322 92.2138 86.196C91.8303 85.8646 91.5249 85.5095 91.2976 85.1307L92.6328 84.1932C92.7843 84.392 92.9761 84.6193 93.2081 84.875C93.4401 85.1354 93.7573 85.3603 94.1598 85.5497C94.567 85.7438 95.0997 85.8409 95.7578 85.8409C96.6385 85.8409 97.3653 85.6278 97.9382 85.2017C98.5111 84.7756 98.7976 84.108 98.7976 83.1989V80.983H98.6555C98.5324 81.1818 98.3572 81.428 98.13 81.7216C97.9074 82.0104 97.5855 82.2685 97.1641 82.4957C96.7474 82.7183 96.1839 82.8295 95.4737 82.8295C94.593 82.8295 93.8023 82.6212 93.1016 82.2045C92.4055 81.7879 91.8539 81.1818 91.4467 80.3864C91.0443 79.5909 90.843 78.625 90.843 77.4886C90.843 76.3712 91.0395 75.3982 91.4325 74.5696C91.8255 73.7363 92.3724 73.0923 93.0732 72.6378C93.7739 72.1785 94.5836 71.9489 95.5021 71.9489C96.2124 71.9489 96.7758 72.0672 97.1925 72.304C97.6139 72.536 97.9358 72.8011 98.1584 73.0994C98.3857 73.393 98.5608 73.6345 98.6839 73.8239H98.8544V72.0909H100.474V83.3125C100.474 84.25 100.261 85.0123 99.8345 85.5994C99.4131 86.1913 98.8449 86.6245 98.13 86.8991C97.4197 87.1785 96.629 87.3182 95.7578 87.3182ZM95.701 81.3239C96.3733 81.3239 96.9415 81.17 97.4055 80.8622C97.8696 80.5545 98.2223 80.1117 98.4638 79.5341C98.7053 78.9564 98.826 78.2652 98.826 77.4602C98.826 76.6742 98.7076 75.9806 98.4709 75.3793C98.2341 74.7779 97.8838 74.3068 97.4197 73.9659C96.9557 73.625 96.3828 73.4545 95.701 73.4545C94.9908 73.4545 94.3989 73.6345 93.9254 73.9943C93.4567 74.3542 93.1039 74.8371 92.8672 75.4432C92.6352 76.0492 92.5192 76.7216 92.5192 77.4602C92.5192 78.2178 92.6375 78.8878 92.8743 79.4702C93.1158 80.0478 93.4709 80.5024 93.9396 80.8338C94.4131 81.1605 95.0002 81.3239 95.701 81.3239ZM108.116 83.2273C107.065 83.2273 106.158 82.9953 105.396 82.5312C104.638 82.0625 104.053 81.4091 103.641 80.571C103.234 79.7282 103.031 78.7481 103.031 77.6307C103.031 76.5133 103.234 75.5284 103.641 74.6761C104.053 73.8191 104.626 73.1515 105.36 72.6733C106.099 72.1903 106.96 71.9489 107.945 71.9489C108.513 71.9489 109.075 72.0436 109.629 72.233C110.183 72.4223 110.687 72.7301 111.141 73.1562C111.596 73.5777 111.958 74.1364 112.228 74.8324C112.498 75.5284 112.633 76.3854 112.633 77.4034V78.1136H104.224V76.6648H110.928C110.928 76.0492 110.805 75.5 110.559 75.017C110.317 74.5341 109.972 74.1529 109.522 73.8736C109.077 73.5942 108.551 73.4545 107.945 73.4545C107.278 73.4545 106.7 73.6203 106.212 73.9517C105.729 74.2784 105.358 74.7045 105.097 75.2301C104.837 75.7557 104.707 76.3191 104.707 76.9205V77.8864C104.707 78.7102 104.849 79.4086 105.133 79.9815C105.422 80.5497 105.822 80.983 106.333 81.2812C106.844 81.5748 107.439 81.7216 108.116 81.7216C108.556 81.7216 108.954 81.66 109.309 81.5369C109.669 81.4091 109.979 81.2197 110.239 80.9688C110.5 80.7131 110.701 80.3958 110.843 80.017L112.462 80.4716C112.292 81.0208 112.005 81.5038 111.603 81.9205C111.201 82.3324 110.703 82.6544 110.112 82.8864C109.52 83.1136 108.854 83.2273 108.116 83.2273Z" fill="white"/>
</svg>
